<svg width="1301" height="1691" viewBox="0 0 1301 1691" fill="none" xmlns="http://www.w3.org/2000/svg">
<path fill-rule="evenodd" clip-rule="evenodd" d="M1301 499.622C1377.01 474.638 1431 411.25 1431 337C1431 243.407 1345.22 167.074 1237.68 163.158C1237.89 160.456 1238 157.736 1238 155C1238 69.3958 1133.01 0 1003.5 0C883.245 0 784.131 59.8315 770.579 136.915C743.788 110.104 709.445 94 672 94C604.382 94 546.876 146.517 525.697 219.757C498.21 215.36 469.113 213 439 213C316.589 213 210.966 251.992 162.034 308.331C130.787 285.051 90.2704 271 46 271C-52.859 271 -133 341.067 -133 427.5C-133 500.029 -76.5689 561.034 0 578.784L0 1428.64C-46.0069 1449.81 -74 1477.8 -74 1508.5C-74 1574.5 55.3897 1628 215 1628C277.309 1628 335.013 1619.85 382.211 1605.98C417.998 1655.17 528.379 1691 659 1691C803.599 1691 923.395 1647.09 944.649 1589.76C986.438 1599.46 1034.66 1605 1086 1605C1245.61 1605 1375 1551.5 1375 1485.5C1375 1454.8 1347.01 1426.81 1301 1405.64V499.622Z" fill="#17E9F2"/>
<path fill-rule="evenodd" clip-rule="evenodd" d="M1301 499.622C1377.01 474.638 1431 411.25 1431 337C1431 243.407 1345.22 167.074 1237.68 163.158C1237.89 160.456 1238 157.736 1238 155C1238 69.3958 1133.01 0 1003.5 0C883.245 0 784.131 59.8315 770.579 136.915C743.788 110.104 709.445 94 672 94C604.382 94 546.876 146.517 525.697 219.757C498.21 215.36 469.113 213 439 213C316.589 213 210.966 251.992 162.034 308.331C130.787 285.051 90.2704 271 46 271C-52.859 271 -133 341.067 -133 427.5C-133 500.029 -76.5689 561.034 0 578.784L0 1428.64C-46.0069 1449.81 -74 1477.8 -74 1508.5C-74 1574.5 55.3897 1628 215 1628C277.309 1628 335.013 1619.85 382.211 1605.98C417.998 1655.17 528.379 1691 659 1691C803.599 1691 923.395 1647.09 944.649 1589.76C986.438 1599.46 1034.66 1605 1086 1605C1245.61 1605 1375 1551.5 1375 1485.5C1375 1454.8 1347.01 1426.81 1301 1405.64V499.622Z" fill="url(#paint0_radial)"/>
<path fill-rule="evenodd" clip-rule="evenodd" d="M1301 499.622C1377.01 474.638 1431 411.25 1431 337C1431 243.407 1345.22 167.074 1237.68 163.158C1237.89 160.456 1238 157.736 1238 155C1238 69.3958 1133.01 0 1003.5 0C883.245 0 784.131 59.8315 770.579 136.915C743.788 110.104 709.445 94 672 94C604.382 94 546.876 146.517 525.697 219.757C498.21 215.36 469.113 213 439 213C316.589 213 210.966 251.992 162.034 308.331C130.787 285.051 90.2704 271 46 271C-52.859 271 -133 341.067 -133 427.5C-133 500.029 -76.5689 561.034 0 578.784L0 1428.64C-46.0069 1449.81 -74 1477.8 -74 1508.5C-74 1574.5 55.3897 1628 215 1628C277.309 1628 335.013 1619.85 382.211 1605.98C417.998 1655.17 528.379 1691 659 1691C803.599 1691 923.395 1647.09 944.649 1589.76C986.438 1599.46 1034.66 1605 1086 1605C1245.61 1605 1375 1551.5 1375 1485.5C1375 1454.8 1347.01 1426.81 1301 1405.64V499.622Z" fill="url(#paint1_radial)"/>
<defs>
<radialGradient id="paint0_radial" cx="0" cy="0" r="1" gradientUnits="userSpaceOnUse" gradientTransform="translate(1152 91.4999) rotate(143.867) scale(1750.14 1892.26)">
<stop stop-color="white"/>
<stop offset="1" stop-color="white" stop-opacity="0"/>
</radialGradient>
<radialGradient id="paint1_radial" cx="0" cy="0" r="1" gradientUnits="userSpaceOnUse" gradientTransform="translate(45 429) rotate(53.1622) scale(1426.9 1542.77)">
<stop stop-color="white"/>
<stop offset="1" stop-color="white" stop-opacity="0"/>
</radialGradient>
</defs>
</svg>
