<svg width="1440" height="244" viewBox="0 0 1440 244" fill="none" xmlns="http://www.w3.org/2000/svg">
<path fill-rule="evenodd" clip-rule="evenodd" d="M0 238.063V19.7505C22.1075 7.54132 52.5351 0 86.1245 0C140.708 0 186.943 19.9147 202.692 47.413C211.59 46.5217 220.78 46.0549 230.18 46.0549C298.712 46.0549 356.066 70.8644 370.65 104.104C385.713 101.576 401.929 100.2 418.825 100.2C498.385 100.2 562.881 130.712 562.881 168.349C576.893 204.657 520.579 236.498 418.825 236.498C390.274 236.498 365.153 233.957 344.137 229.508C343.923 232.841 340.742 238.004 335.222 244H102.607C100.057 238.521 98.7008 232.774 98.7008 226.851C98.7008 226.44 98.7073 226.03 98.7204 225.62C79.6112 232.503 56.8378 236.498 32.3893 236.498C22.3042 236.498 12.5041 235.818 3.12867 234.536C2.17017 235.731 1.12614 236.907 0 238.063Z" fill="#838097"/>
<path fill-rule="evenodd" clip-rule="evenodd" d="M0 238.063V19.7505C22.1075 7.54132 52.5351 0 86.1245 0C140.708 0 186.943 19.9147 202.692 47.413C211.59 46.5217 220.78 46.0549 230.18 46.0549C298.712 46.0549 356.066 70.8644 370.65 104.104C385.713 101.576 401.929 100.2 418.825 100.2C498.385 100.2 562.881 130.712 562.881 168.349C576.893 204.657 520.579 236.498 418.825 236.498C390.274 236.498 365.153 233.957 344.137 229.508C343.923 232.841 340.742 238.004 335.222 244H102.607C100.057 238.521 98.7008 232.774 98.7008 226.851C98.7008 226.44 98.7073 226.03 98.7204 225.62C79.6112 232.503 56.8378 236.498 32.3893 236.498C22.3042 236.498 12.5041 235.818 3.12867 234.536C2.17017 235.731 1.12614 236.907 0 238.063Z" fill="url(#paint0_linear)"/>
<path fill-rule="evenodd" clip-rule="evenodd" d="M720 224.799C720 224.809 720 224.819 720 224.829C720.003 231.516 722.093 237.96 726.135 244H1440V101.667C1420.22 93.1866 1396.08 88.2047 1370.03 88.2047C1350.56 88.2047 1332.15 90.9865 1315.84 95.931C1308.71 59.3616 1257.45 31 1195.28 31C1141.11 31 1095.22 52.535 1079.59 82.2703C1070.76 81.3065 1061.64 80.8017 1052.31 80.8017C984.288 80.8017 927.365 107.63 912.891 143.574C897.94 140.84 881.846 139.352 865.077 139.352C786.115 139.352 722.103 172.346 722.103 213.045C720.694 217.023 720.002 220.951 720 224.799Z" fill="#CED6D7"/>
<path fill-rule="evenodd" clip-rule="evenodd" d="M720 224.799C720 224.809 720 224.819 720 224.829C720.003 231.516 722.093 237.96 726.135 244H1440V101.667C1420.22 93.1866 1396.08 88.2047 1370.03 88.2047C1350.56 88.2047 1332.15 90.9865 1315.84 95.931C1308.71 59.3616 1257.45 31 1195.28 31C1141.11 31 1095.22 52.535 1079.59 82.2703C1070.76 81.3065 1061.64 80.8017 1052.31 80.8017C984.288 80.8017 927.365 107.63 912.891 143.574C897.94 140.84 881.846 139.352 865.077 139.352C786.115 139.352 722.103 172.346 722.103 213.045C720.694 217.023 720.002 220.951 720 224.799Z" fill="url(#paint1_linear)"/>
<path fill-rule="evenodd" clip-rule="evenodd" d="M0 244H1325.22C1281.95 222.26 1217.86 208.495 1146.35 208.495C1112.84 208.495 1080.96 211.517 1052.08 216.967C1010.56 187.778 936.033 168.317 851 168.317C814.265 168.317 779.49 171.949 748.49 178.429C719.123 136.512 629.122 106 522.65 106C424.677 106 340.65 131.835 304.979 168.619C298.947 168.419 292.851 168.317 286.7 168.317C232.775 168.317 183.075 176.143 143.338 189.314C109.104 163.146 58.7501 143.473 0 134.436V244Z" fill="url(#paint2_linear)"/>
<defs>
<linearGradient id="paint0_linear" x1="303" y1="37.9641" x2="246.274" y2="311.737" gradientUnits="userSpaceOnUse">
<stop stop-color="white" stop-opacity="0.7"/>
<stop offset="0.780202" stop-color="white" stop-opacity="0"/>
</linearGradient>
<linearGradient id="paint1_linear" x1="1116.5" y1="31" x2="1116.5" y2="350" gradientUnits="userSpaceOnUse">
<stop stop-color="white"/>
<stop offset="1" stop-color="white" stop-opacity="0"/>
</linearGradient>
<linearGradient id="paint2_linear" x1="662.609" y1="106" x2="662.609" y2="244" gradientUnits="userSpaceOnUse">
<stop stop-color="#B9BDBE"/>
<stop offset="1" stop-color="#29305D"/>
</linearGradient>
</defs>
</svg>
