<svg width="1301" height="81" viewBox="0 0 1301 81" fill="none" xmlns="http://www.w3.org/2000/svg">
<path fill-rule="evenodd" clip-rule="evenodd" d="M1.21554 0C0.419026 1.61279 0 3.28539 0 5C0 18.2548 25.0416 29 55.9321 29C63.9476 29 71.5693 28.2765 78.4619 26.9734C86.1203 53.4488 112.969 73 144.915 73C177.217 73 204.308 53.0098 211.617 26.084C227.589 35.9746 248.781 42 272.033 42C300.076 42 325.124 33.2357 341.629 19.4969C385.178 33.2357 451.264 42 525.253 42C545.326 42 564.818 41.3549 583.436 40.1404C597.322 63.9535 634.554 81 678.303 81C723.467 81 761.684 62.834 774.443 37.8112C799.217 48.4552 832.895 55 869.998 55C941.181 55 999.758 30.91 1007.03 0L1.21554 0ZM1007.47 0C1037.29 17.968 1091.86 30 1154.23 30C1216.61 30 1271.17 17.968 1301 0L1007.47 0Z" fill="#9AFBFF"/>
</svg>
