<svg width="1440" height="115" viewBox="0 0 1440 115" fill="none" xmlns="http://www.w3.org/2000/svg">
<path fill-rule="evenodd" clip-rule="evenodd" d="M925.064 9C903.059 9 882.229 6.78513 863.66 2.83393C846.069 28.3942 792.158 47 728.38 47C708.306 47 689.209 45.1567 671.915 41.8335C647.041 59.6328 602.399 71.5 551.464 71.5C550.454 71.5 549.446 71.4953 548.441 71.486C528.518 79.9951 496.779 85.5 461.029 85.5C441.063 85.5 422.348 83.783 406.244 80.7846C393.55 95.6083 351.201 106.5 300.915 106.5C288.65 106.5 276.858 105.852 265.853 104.657C247.099 111.144 223.613 115 198.125 115C173.703 115 151.119 111.459 132.775 105.457C124.27 106.138 115.371 106.5 106.208 106.5C54.6908 106.5 11.505 95.0689 0 79.6897V78V63.3103V0H411.678H488H1440V47C1440 47 1425.08 44.0587 1404.94 38.9085C1375.95 58.482 1331.59 71 1281.86 71C1228.25 71 1180.87 56.4502 1152.27 34.1958C1128.47 42.2274 1098.7 47 1066.4 47C1007.71 47 957.381 31.246 936.014 8.81596C932.4 8.93791 928.749 9 925.064 9Z" fill="#29305D"/>
</svg>
