<svg width="1440" height="336" viewBox="0 0 1440 336" fill="none" xmlns="http://www.w3.org/2000/svg">
<path fill-rule="evenodd" clip-rule="evenodd" d="M0 330.063V111.75C22.1075 99.5413 52.5351 92 86.1245 92C140.708 92 186.943 111.915 202.692 139.413C211.59 138.522 220.78 138.055 230.18 138.055C298.712 138.055 356.066 162.864 370.65 196.104C385.713 193.576 401.929 192.2 418.825 192.2C498.385 192.2 562.881 222.712 562.881 260.349C576.893 296.657 520.579 328.498 418.825 328.498C390.274 328.498 365.153 325.957 344.137 321.508C343.923 324.841 340.742 330.004 335.222 336H102.607C100.057 330.521 98.7008 324.774 98.7008 318.851C98.7008 318.44 98.7073 318.03 98.7204 317.62C79.6112 324.503 56.8378 328.498 32.3893 328.498C22.3042 328.498 12.5041 327.818 3.12867 326.536C2.17017 327.731 1.12614 328.907 0 330.063Z" fill="#838097"/>
<path fill-rule="evenodd" clip-rule="evenodd" d="M0 330.063V111.75C22.1075 99.5413 52.5351 92 86.1245 92C140.708 92 186.943 111.915 202.692 139.413C211.59 138.522 220.78 138.055 230.18 138.055C298.712 138.055 356.066 162.864 370.65 196.104C385.713 193.576 401.929 192.2 418.825 192.2C498.385 192.2 562.881 222.712 562.881 260.349C576.893 296.657 520.579 328.498 418.825 328.498C390.274 328.498 365.153 325.957 344.137 321.508C343.923 324.841 340.742 330.004 335.222 336H102.607C100.057 330.521 98.7008 324.774 98.7008 318.851C98.7008 318.44 98.7073 318.03 98.7204 317.62C79.6112 324.503 56.8378 328.498 32.3893 328.498C22.3042 328.498 12.5041 327.818 3.12867 326.536C2.17017 327.731 1.12614 328.907 0 330.063Z" fill="url(#paint0_linear)"/>
<path fill-rule="evenodd" clip-rule="evenodd" d="M720 316.799C720 316.809 720 316.819 720 316.829C720.003 323.516 722.093 329.96 726.135 336H1440V193.667C1420.22 185.187 1396.08 180.205 1370.03 180.205C1350.56 180.205 1332.15 182.986 1315.84 187.931C1308.71 151.362 1257.45 123 1195.28 123C1141.11 123 1095.22 144.535 1079.59 174.27C1070.76 173.307 1061.64 172.802 1052.31 172.802C984.288 172.802 927.365 199.63 912.891 235.574C897.94 232.84 881.846 231.352 865.077 231.352C786.115 231.352 722.103 264.346 722.103 305.045C720.694 309.023 720.002 312.951 720 316.799Z" fill="#CED6D7"/>
<path fill-rule="evenodd" clip-rule="evenodd" d="M720 316.799C720 316.809 720 316.819 720 316.829C720.003 323.516 722.093 329.96 726.135 336H1440V193.667C1420.22 185.187 1396.08 180.205 1370.03 180.205C1350.56 180.205 1332.15 182.986 1315.84 187.931C1308.71 151.362 1257.45 123 1195.28 123C1141.11 123 1095.22 144.535 1079.59 174.27C1070.76 173.307 1061.64 172.802 1052.31 172.802C984.288 172.802 927.365 199.63 912.891 235.574C897.94 232.84 881.846 231.352 865.077 231.352C786.115 231.352 722.103 264.346 722.103 305.045C720.694 309.023 720.002 312.951 720 316.799Z" fill="url(#paint1_linear)"/>
<path fill-rule="evenodd" clip-rule="evenodd" d="M0 336H1325.22C1281.95 314.26 1217.86 300.495 1146.35 300.495C1112.84 300.495 1080.96 303.517 1052.08 308.967C1010.56 279.778 936.033 260.317 851 260.317C814.265 260.317 779.49 263.949 748.49 270.429C719.123 228.512 629.122 198 522.65 198C424.677 198 340.65 223.835 304.979 260.619C298.947 260.419 292.851 260.317 286.7 260.317C232.775 260.317 183.075 268.143 143.338 281.314C109.104 255.146 58.7501 235.473 0 226.436V336Z" fill="#29305D"/>
<path fill-rule="evenodd" clip-rule="evenodd" d="M0 336H1325.22C1281.95 314.26 1217.86 300.495 1146.35 300.495C1112.84 300.495 1080.96 303.517 1052.08 308.967C1010.56 279.778 936.033 260.317 851 260.317C814.265 260.317 779.49 263.949 748.49 270.429C719.123 228.512 629.122 198 522.65 198C424.677 198 340.65 223.835 304.979 260.619C298.947 260.419 292.851 260.317 286.7 260.317C232.775 260.317 183.075 268.143 143.338 281.314C109.104 255.146 58.7501 235.473 0 226.436V336Z" fill="url(#paint2_linear)"/>
<path d="M872.903 51.8965L843.423 119.158L828.992 154.205L788.414 130.675L771.918 151.803L760.177 121.162L726.27 104.663L872.903 51.8965Z" fill="#DCDCDC"/>
<path d="M800.483 136.949L767.998 155.174L787.767 130.563L800.483 136.949Z" fill="#C6B7B7"/>
<path d="M873.043 51.8976C873.043 51.8976 784.785 129.414 769.73 154.632L762.217 122.804L873.043 51.8976Z" fill="#CCC7C7"/>
<defs>
<linearGradient id="paint0_linear" x1="303" y1="129.964" x2="246.274" y2="403.737" gradientUnits="userSpaceOnUse">
<stop stop-color="white" stop-opacity="0.7"/>
<stop offset="0.780202" stop-color="white" stop-opacity="0"/>
</linearGradient>
<linearGradient id="paint1_linear" x1="1116.5" y1="123" x2="1116.5" y2="442" gradientUnits="userSpaceOnUse">
<stop stop-color="white"/>
<stop offset="1" stop-color="white" stop-opacity="0"/>
</linearGradient>
<linearGradient id="paint2_linear" x1="662.609" y1="198" x2="662.609" y2="336" gradientUnits="userSpaceOnUse">
<stop stop-color="#B9BDBE" stop-opacity="0.34"/>
<stop offset="1" stop-color="#29305D"/>
</linearGradient>
</defs>
</svg>
