<svg width="1301" height="582" viewBox="0 0 1301 582" fill="none" xmlns="http://www.w3.org/2000/svg">
<path fill-rule="evenodd" clip-rule="evenodd" d="M580.5 358.137C543.397 391.248 490.153 412 431 412C318.886 412 228 337.455 228 245.5C228 153.545 318.886 79 431 79C490.153 79 543.397 99.7516 580.5 132.863C617.603 99.7516 670.847 79 730 79C754.043 79 777.109 82.4281 798.512 88.7209C823.926 35.9525 874.393 0 932.5 0C976.364 0 1015.87 20.4871 1043.54 53.2295C1079.59 26.3696 1127.46 10 1180 10C1292.11 10 1383 84.5446 1383 176.5C1383 268.455 1292.11 343 1180 343C1122.1 343 1069.85 323.116 1032.87 291.218C1006.15 317.217 971 333 932.5 333C923.036 333 913.775 332.046 904.792 330.222C869.444 379.176 804.396 412 730 412C670.847 412 617.603 391.248 580.5 358.137Z" fill="#FFDFEB"/>
<path fill-rule="evenodd" clip-rule="evenodd" d="M580.5 358.137C543.397 391.248 490.153 412 431 412C318.886 412 228 337.455 228 245.5C228 153.545 318.886 79 431 79C490.153 79 543.397 99.7516 580.5 132.863C617.603 99.7516 670.847 79 730 79C754.043 79 777.109 82.4281 798.512 88.7209C823.926 35.9525 874.393 0 932.5 0C976.364 0 1015.87 20.4871 1043.54 53.2295C1079.59 26.3696 1127.46 10 1180 10C1292.11 10 1383 84.5446 1383 176.5C1383 268.455 1292.11 343 1180 343C1122.1 343 1069.85 323.116 1032.87 291.218C1006.15 317.217 971 333 932.5 333C923.036 333 913.775 332.046 904.792 330.222C869.444 379.176 804.396 412 730 412C670.847 412 617.603 391.248 580.5 358.137Z" fill="url(#paint0_linear)"/>
<path fill-rule="evenodd" clip-rule="evenodd" d="M80.2352 385.615C107.834 385.615 133.803 380.267 156.475 370.85C176.723 407.863 214.873 432.808 258.599 432.808C284.796 432.808 308.991 423.854 328.535 408.716C355.342 450.803 413.975 480 481.993 480C575.333 480 651 425.017 651 357.192C651 289.368 575.333 234.385 481.993 234.385C438.288 234.385 398.458 246.439 368.456 266.222C351.577 220.014 308.757 187.192 258.599 187.192C243.093 187.192 228.288 190.329 214.733 196.029C186.17 162.306 136.602 140 80.2352 140C-8.26026 140 -80 194.983 -80 262.808C-80 330.632 -8.26026 385.615 80.2352 385.615Z" fill="#FFFAD0"/>
<path fill-rule="evenodd" clip-rule="evenodd" d="M80.2352 385.615C107.834 385.615 133.803 380.267 156.475 370.85C176.723 407.863 214.873 432.808 258.599 432.808C284.796 432.808 308.991 423.854 328.535 408.716C355.342 450.803 413.975 480 481.993 480C575.333 480 651 425.017 651 357.192C651 289.368 575.333 234.385 481.993 234.385C438.288 234.385 398.458 246.439 368.456 266.222C351.577 220.014 308.757 187.192 258.599 187.192C243.093 187.192 228.288 190.329 214.733 196.029C186.17 162.306 136.602 140 80.2352 140C-8.26026 140 -80 194.983 -80 262.808C-80 330.632 -8.26026 385.615 80.2352 385.615Z" fill="url(#paint1_linear)"/>
<path fill-rule="evenodd" clip-rule="evenodd" d="M-11.4994 572.428V582L1303.51 582V502.333C1355.98 479.632 1390.46 441.206 1390.46 397.624C1390.46 329.687 1306.65 274.277 1201.59 271.434C1201.8 269.473 1201.91 267.499 1201.91 265.513C1201.91 203.374 1099.33 153 972.806 153C855.319 153 758.487 196.431 745.247 252.385C719.073 232.924 685.52 221.234 648.937 221.234C582.876 221.234 526.694 259.355 506.003 312.519C479.148 309.327 450.721 307.614 421.302 307.614C301.709 307.614 198.518 335.919 150.712 376.814C120.185 359.915 80.6007 349.716 37.3495 349.716C-59.2335 349.716 -137.53 400.577 -137.53 463.317C-137.53 515.044 -84.3098 558.696 -11.4994 572.428Z" fill="#9AFBFF"/>
<path fill-rule="evenodd" clip-rule="evenodd" d="M-11.4994 572.428V582L1303.51 582V502.333C1355.98 479.632 1390.46 441.206 1390.46 397.624C1390.46 329.687 1306.65 274.277 1201.59 271.434C1201.8 269.473 1201.91 267.499 1201.91 265.513C1201.91 203.374 1099.33 153 972.806 153C855.319 153 758.487 196.431 745.247 252.385C719.073 232.924 685.52 221.234 648.937 221.234C582.876 221.234 526.694 259.355 506.003 312.519C479.148 309.327 450.721 307.614 421.302 307.614C301.709 307.614 198.518 335.919 150.712 376.814C120.185 359.915 80.6007 349.716 37.3495 349.716C-59.2335 349.716 -137.53 400.577 -137.53 463.317C-137.53 515.044 -84.3098 558.696 -11.4994 572.428Z" fill="url(#paint2_linear)"/>
<path d="M1145.77 259.385C1141.93 287.275 1080.07 230.2 997.522 218.275C914.976 206.35 843.003 244.092 846.848 216.201C850.694 188.311 920.728 175.369 1003.27 187.294C1085.82 199.219 1149.62 231.495 1145.77 259.385Z" fill="white" fill-opacity="0.31"/>
<path d="M495.356 367.316C499.496 391.792 424.757 362.375 342.978 376.868C261.199 391.361 203.348 444.274 199.208 419.799C195.068 395.324 258.007 363.734 339.786 349.241C421.565 334.749 491.216 342.841 495.356 367.316Z" fill="white" fill-opacity="0.28"/>
<path d="M978.614 435.467C978.523 465.573 909.987 414.406 827.05 414.142C744.114 413.878 678.184 464.618 678.276 434.512C678.367 404.406 745.674 380.214 828.611 380.478C911.547 380.741 978.706 405.361 978.614 435.467Z" fill="white" fill-opacity="0.28"/>
<path d="M122.416 431.115C122.322 462.162 57.8962 409.415 -20.0826 409.167C-98.0615 408.919 -160.064 461.264 -159.97 430.216C-159.876 399.169 -96.5852 374.201 -18.6064 374.449C59.3724 374.697 122.51 400.067 122.416 431.115Z" fill="white" fill-opacity="0.28"/>
<path d="M695.986 275.337C706.385 298.719 657.083 273.923 618.805 291.76C580.527 309.597 567.769 363.312 557.37 339.93C546.97 316.549 569.569 283.134 607.847 265.297C646.125 247.46 685.586 251.955 695.986 275.337Z" fill="white" fill-opacity="0.35"/>
<path d="M1462.83 367.115C1462.74 398.162 1398.31 345.415 1320.33 345.167C1242.35 344.919 1180.35 397.264 1180.44 366.216C1180.54 335.169 1243.83 310.201 1321.81 310.449C1399.79 310.697 1462.92 336.067 1462.83 367.115Z" fill="white" fill-opacity="0.28"/>
<defs>
<linearGradient id="paint0_linear" x1="806" y1="-303.5" x2="806" y2="693.5" gradientUnits="userSpaceOnUse">
<stop stop-color="white"/>
<stop offset="1" stop-color="white" stop-opacity="0"/>
</linearGradient>
<linearGradient id="paint1_linear" x1="-80" y1="-130.5" x2="-80" y2="360" gradientUnits="userSpaceOnUse">
<stop stop-color="white"/>
<stop offset="1" stop-color="white" stop-opacity="0"/>
</linearGradient>
<linearGradient id="paint2_linear" x1="669.5" y1="30" x2="661.5" y2="412" gradientUnits="userSpaceOnUse">
<stop stop-color="white"/>
<stop offset="1" stop-color="white" stop-opacity="0"/>
</linearGradient>
</defs>
</svg>
