<svg width="1301" height="429" viewBox="0 0 1301 429" fill="none" xmlns="http://www.w3.org/2000/svg">
<path fill-rule="evenodd" clip-rule="evenodd" d="M-11.4994 419.428V429L1303.51 429V349.333C1355.98 326.632 1390.46 288.206 1390.46 244.624C1390.46 176.687 1306.65 121.277 1201.59 118.434C1201.8 116.473 1201.91 114.499 1201.91 112.513C1201.91 50.3737 1099.33 6.10352e-05 972.806 6.10352e-05C855.319 6.10352e-05 758.487 43.4312 745.247 99.385C719.073 79.9238 685.52 68.2335 648.937 68.2335C582.876 68.2335 526.694 106.355 506.003 159.519C479.148 156.327 450.721 154.614 421.302 154.614C301.709 154.614 198.518 182.918 150.712 223.814C120.185 206.915 80.6007 196.716 37.3495 196.716C-59.2335 196.716 -137.53 247.577 -137.53 310.317C-137.53 362.044 -84.3098 405.696 -11.4994 419.428Z" fill="#9AFBFF"/>
<path d="M1145.77 106.385C1141.93 134.275 1080.07 77.2001 997.522 65.2751C914.976 53.3502 843.003 91.0915 846.848 63.2014C850.694 35.3113 920.728 22.369 1003.27 34.2939C1085.82 46.2188 1149.62 78.4953 1145.77 106.385Z" fill="white" fill-opacity="0.31"/>
<path d="M495.356 214.316C499.496 238.792 424.757 209.375 342.978 223.868C261.199 238.361 203.348 291.274 199.208 266.799C195.068 242.324 258.007 210.734 339.786 196.241C421.565 181.749 491.216 189.841 495.356 214.316Z" fill="white" fill-opacity="0.28"/>
<path d="M978.614 282.467C978.523 312.573 909.987 261.406 827.05 261.142C744.114 260.878 678.184 311.618 678.276 281.512C678.367 251.406 745.674 227.214 828.611 227.478C911.547 227.742 978.706 252.361 978.614 282.467Z" fill="white" fill-opacity="0.28"/>
<path d="M122.416 278.115C122.322 309.162 57.8962 256.415 -20.0827 256.167C-98.0615 255.919 -160.064 308.264 -159.97 277.216C-159.876 246.169 -96.5852 221.201 -18.6064 221.449C59.3724 221.697 122.51 247.067 122.416 278.115Z" fill="white" fill-opacity="0.28"/>
<path d="M695.986 122.337C706.385 145.719 657.083 120.923 618.805 138.76C580.527 156.597 567.769 210.312 557.37 186.93C546.97 163.549 569.569 130.134 607.847 112.297C646.125 94.4599 685.586 98.9549 695.986 122.337Z" fill="white" fill-opacity="0.35"/>
<path d="M1462.83 214.115C1462.74 245.162 1398.31 192.415 1320.33 192.167C1242.35 191.919 1180.35 244.264 1180.44 213.216C1180.54 182.169 1243.83 157.201 1321.81 157.449C1399.79 157.697 1462.92 183.067 1462.83 214.115Z" fill="white" fill-opacity="0.28"/>
</svg>
