<svg width="1437" height="55" viewBox="0 0 1437 55" fill="none" xmlns="http://www.w3.org/2000/svg">
<path fill-rule="evenodd" clip-rule="evenodd" d="M0 55H1223H1437V40.0976C1318.45 39.7051 1223 21.9031 1223 0C1223 22.1489 1125.4 40.1042 1005 40.1042C884.602 40.1042 787 22.1489 787 0C787 22.1489 689.398 40.1042 569 40.1042C448.602 40.1042 351 22.1489 351 0C351 22.1489 253.398 40.1042 133 40.1042C82.9309 40.1042 36.8042 36.999 0 31.7783V55Z" fill="#537387"/>
<path fill-rule="evenodd" clip-rule="evenodd" d="M0 55H1223H1437V40.0976C1318.45 39.7051 1223 21.9031 1223 0C1223 22.1489 1125.4 40.1042 1005 40.1042C884.602 40.1042 787 22.1489 787 0C787 22.1489 689.398 40.1042 569 40.1042C448.602 40.1042 351 22.1489 351 0C351 22.1489 253.398 40.1042 133 40.1042C82.9309 40.1042 36.8042 36.999 0 31.7783V55Z" fill="url(#paint0_linear)"/>
<defs>
<linearGradient id="paint0_linear" x1="718.5" y1="0" x2="718.5" y2="55" gradientUnits="userSpaceOnUse">
<stop stop-color="#3B6379"/>
<stop offset="1" stop-color="#537D95"/>
</linearGradient>
</defs>
</svg>
